<?xml version="1.0" encoding="utf-8"?>
<!-- Generator: Adobe Illustrator 27.8.1, SVG Export Plug-In . SVG Version: 6.00 Build 0)  -->
<svg version="1.1" id="Layer_1" xmlns="http://www.w3.org/2000/svg" xmlns:xlink="http://www.w3.org/1999/xlink" x="0px" y="0px"
	 viewBox="0 0 720 720" style="enable-background:new 0 0 720 720;" xml:space="preserve">
<style type="text/css">
	.st0{fill:#010101;}
	.st1{display:none;opacity:0.36;}
	.st2{display:inline;}
	.st3{fill:#F36E25;}
	.st4{fill:#002907;}
	.st5{fill:#FDF2C3;}
	.st6{fill:#D4509D;}
	.st7{fill:#FFFFFF;}
</style>
<g>
	<path d="M445.9,213.5c-0.1-3.8-4-7.3-8.2-7.7c-7.2-0.6-14.3-0.9-21.5-1.4c-15.1-1.1-30.1-2.1-45.1-3.4c-5.9-0.5-10.6-3.4-14.5-8
		c-6.6-7.9-13.6-15.6-20.3-23.4c-17.4-20.2-39.2-32.1-65.5-36.7c-27.3-4.8-53.6-1.3-79.2,7.9c-36.7,13.1-66.4,36.3-90.8,66.3
		c-42.6,52.6-61.9,113.5-63.5,173.1c0.2,35.7,4,63.3,12.7,90.2c14.3,44.4,41.5,79.3,80.6,104c35.2,22.3,74.3,30.6,116,23.2
		c12.1-2.1,24.6-3.7,36.1-7.8c29-10.5,55.4-26.2,78.8-46.3c9.7-8.3,19.2-17.6,26.1-28.2c12.7-19.7,8.6-33-9.5-44.5
		c-7.1-4.5-14.7-8.3-22-12.5c-2.7-1.5-4.8-3.6-3.6-7c1.2-3.4,3.7-4.7,7.4-4.4c11.2,0.8,22.4,1.3,33.6,2c7.5,0.4,15.1,1.1,22.6,1.1
		c10.7,0.1,17.2-4.8,17.9-13.3c1.2-15.1,2-30.2,2.7-45.3c0.3-6.6-3.7-11.8-10.1-13.1c-4.3-0.9-8.8-0.8-13.1-1.4
		c-5.5-0.8-10.9-1.5-16.3-2.8c-3.1-0.7-5.1-3.2-5.5-6.6c-0.4-3.2,1.5-5.5,4-6.7c2-1,4.6-1.2,7-1.2c7.4,0,14.8,0.3,22.3,0.3
		c8.1,0.1,12.3-3.3,13.2-11.3c1.6-14.1,2.8-28.3,4.3-42.5c0.6-5.9-2-9.9-6.7-13c-4.4-2.9-9.3-3.7-14.4-4.1
		c-5.4-0.4-10.8-0.8-16.1-1.9c-4.3-0.9-6-3.7-5.6-6.9c0.3-3.2,3.1-5.6,7.3-5.9c7.5-0.5,15.1-1,22.7-1.3c10.4-0.3,12.1-1.5,14.8-11.7
		c0.3-1.1,0.5-2.2,0.7-3.3C447.8,243.2,446.4,228.4,445.9,213.5z M279.1,440.4c-0.3,0.1-0.6,0.3-0.8,0.2c-4-1.1-7.4-3.5-10.9-5.5
		c-2-1.2-4-2.2-6-3.3c-1.9-1.1-3.6-2.7-5.5-3.8c-1.8-1-3.7-1.7-5.5-2.8c-1.8-1.2-3.7-2.3-5.5-3.5c-1.2-0.8-2.5-1.8-4.2-1.1
		c-2-2.7-4.9-4.1-8.7-5.6h-2.7c-4.1,2.3-7.2,5.4-9.9,9.3c-2-0.3-3.8,0.7-5.3,2.3c-1.8,2-3.8,3.7-6.1,4.8c-0.5,0.9-0.8,2-1.5,2.7
		c-0.9,0.8-2,1.5-3.2,1.7c-2.4,0.4-4.9,0.8-7.4,0.8c-2,0-3.9-0.6-6.2-0.9c-0.6-0.4-1.5-1.1-2.4-1.7c0.5-2-2.4-0.5-2.1-1.5
		c-0.3-3.2-0.7-4.1-2.6-6.2v-2.4c0.4-0.4,0.9-0.8,1.4-1.3v-3.2c0.9-1.3,1.7-2.4,2.5-3.6c-0.3-0.5-0.6-1-0.8-1.5
		c0.1-0.3,0.1-0.6,0.3-0.7c1.1-1,2.1-2,3.5-2.9c1.2-0.8,1.9-2.5,3.1-4c4.2-3.5,7.3-8.5,11-13.2c0.6-2.6-0.7-4.5-2.5-6.5
		c-3.6-4.2-7.6-7.9-9.9-13c0.4-1.5-1.2-0.9-1.6-1.6c-1-1.7-2.6-6.6-3.1-8.8c-0.6-2.2-0.8-4.4-0.7-6.1c1-1.8,1.8-3.1,2.7-4.6
		c-0.8-0.9-1.5-1.6-2.1-2.3c0.9-2.1,2.8-2.5,4.5-3.6c0.5-1.7,2-2.7,4.2-3.5h2.7c0.4-0.5,0.8-0.9,1.3-1.5h3.6c1.1,0.9,2.4,1.9,3.9,3
		c1.8,0,3.7,0.4,5.3,1.6c0.4,0.3,0.9,0.5,1.3,0.8c4.6,2.5,8.9,5.4,12.6,9.1c1.5,1.5,3.3,2.7,4.9,4.2c1.6,1.6,3.1,3.3,4.9,5.4
		c2.9,0.2,5.3-1.7,7.2-3.5c2.8-1.2,5.4-1.5,7.3-3.4c0.5-0.5,1.2-0.9,1.9-1.1c2.2-0.8,4.2-1.8,6-3.5c1.7-1.7,5.7-1.1,7.8,0.8
		c0.4,0.3,0.8,0.7,1.1,0.9v3.8c-0.9,1.2-1.5,2.3-2.2,3.2c-1.4,1.7-2.2,3.8-3.7,5.5c-1.2,1.4-1.7,3.7-2.6,5.5c-0.5,1-1,1.9-1.4,2.9
		c-1.2,3.2-3.7,5.5-5.8,8.4c1.2,1.9,2.6,4,4,6.3c0,2.4,3,4.2,2.4,6.8c2.6,3.9,5,7.6,7.7,11.7v2.3c0.9,1.3,2,2.3,2.3,3.6
		c1.5,4.9,5.1,8.8,7.3,13.4c1.6,0.9,1.5,2.8,2,4.2c0.6,1.5,1.1,3,2.4,4.1V440.4z M280.4,256.2c-3.5-1.4-6.7-3.2-10.3-4.2
		c-0.6-0.2-1.2-0.7-1.7-0.6c-2.5,0.4-4.8-0.5-6.7-1.7c-1.4-0.9-2.7-0.3-4.1-0.8c-2.2-3-6.2-3.1-8.7-5.4c-1.7,0.4-3.1,0.8-4.7,1.1
		c-1,1.9-0.9,4.5-2.5,6.2c-1.5,1.6-3.4,3-5.1,4.4c-1.8-0.2-3.4,0.4-4.7,1.7c-2,1.8-4.3,3.2-5.8,5.7c-0.9,1.5-2.9,2.4-4.4,3.2
		c-2.8,1.4-5.6,2.7-8.2,4c-3-0.3-6-0.7-9.2-1c-1,0.2-2.5,0.4-4,0.7c-0.4-0.6-0.9-1.1-1.3-1.6h-2.6c-1.1-1.2-2.1-2.2-3-3
		c-1.4-0.4-2.7-0.8-3.4-0.9c-1.3-0.9-2.1-1.5-3-2.2c0.5-0.6,0.8-1,1.1-1.5c-0.3-5-0.2-10.2,1.6-15.2c1-1,1.6-2.8,3.5-3.1
		c0.3-1.7,0.6-3.3,0.9-5c4-0.8,4.9-4.9,7.9-6.8c-0.4-2.5,0.8-4.4,2.9-6.1c1.2,0.3,2.6,0.6,4.5,1c0.3-0.7,0.7-1.7,1.1-2.7
		c0.3,0.2,0.6,0.4,0.9,0.6c-1-0.9-2-1.8-3.1-2.6c-2-1.6-4.9-1.8-6.2-4.4c-0.6-2.6-1-5.1-4-6.2c-1.2-0.4-2.3-1.5-3.2-2.4
		c-0.9-1-1.9-2-2.5-3.2c-1.1-2.1-2.9-3.5-4.7-5.4c1-2.8,1.9-5.4,3.3-9.3c1.4-2.6,5.3-4.7,8.5-8h2.1c1.4,1.5,2.9,3.2,5.5,3.2
		c0.7,0,1.4,0.9,2.1,1.3c0.5,0.3,1.1,0.8,1.6,0.8c1.6,0,2.9,0.5,4,1.7c0.6,0.7,1.3,0.6,2,0.8c1.9,0.5,3.7,1.1,5.8,1.8
		c0.2,1.8,2.2,2,3.4,3.2c1.4,1.3,2.8,2.7,4.4,3.5c1.4,0.7,2,2.7,3.9,2.4c0.4,1.6,1.1,2.7,3.2,2.3c0.6,0.8,1.4,1.7,1.9,2.4h4
		c2.8-2.2,5.8-3.3,8.8-4.7c6.1-2.9,12.4-5.1,18.6-7.7c2.4,0.9,4.1-2.3,6.6-1.4c0,0.4,0.1,0.8,0,0.9c-1.7,2.7-3.5,5.3-5.4,8.3
		c-0.9,3.4-2.6,7.1-4.1,10.7c-1.5,3.5-3.2,7-4.2,10.8c-1.1,1-2.3,2.1-3.4,3.1c0.6,2.5,1.8,4,6.2,8.3c-0.3,3.2,1.9,5.3,3.6,7.4
		c1.3,1.6,3,2.9,4.4,4.5c0.5,0.5,0.6,1.3,1.1,2.6c2.7,2.7,6,6,9.2,9.2C283.1,257.3,281.8,256.8,280.4,256.2z"/>
	<path d="M516,531.2c-11.4-1.2-23.3-4.5-32.4-14.1c-10.2-10.8-20.2-21.9-30.1-32.9c-5-5.6-5-8.3,0.9-12.8
		c11.3-8.6,22.6-17.4,34.5-25.2c7.8-5.1,16.4-3,23.4,2.2c7,5.1,13,11.4,19.4,17.3c2.4,2.3,4.4,4.8,8.3,4.1
		c8.4-1.6,10.6-7.1,5.4-13.6c-3-3.8-6.6-7.3-9.2-11.5c-2.6-4.1-4.7-8.6-6.2-13.2c-2.7-7.7-0.1-14.4,6.5-19c9-6.2,18-12.5,27-18.7
		c10.9-7.6,16.3-7.6,25.5,1.8c6.4,6.6,11.8,14.1,17.4,21.4c2.1,2.7,3.1,6.3,7.7,5c4.8-1.4,8.3-5.5,7.4-10.1c-0.8-4.1-2.7-8-4.5-11.8
		c-2-4.3-5.1-8.3-6.3-12.8c-1.5-5.5-2-11.4-2.1-17.1c-0.1-5,2.6-9.1,6.8-12c9.1-6.2,18.3-12.1,27.2-18.6c7.9-5.8,12.1-4,17.3,4.7
		c5.9,9.9,10.4,20.7,15.4,31.2c1.9,4,3.8,8,5.4,12.1c3,7.4,3.9,15.1,2.1,23c-1.6,6.7-3.3,13.5-5.4,20c-2.6,7.9-7.6,14.1-14.8,18.5
		c-40.6,25.2-81.1,50.5-121.8,75.5C533.7,528.8,525.6,530.5,516,531.2z"/>
</g>
</svg>
