<?xml version="1.0" standalone="no"?>
<!DOCTYPE svg PUBLIC "-//W3C//DTD SVG 1.1//EN" "http://www.w3.org/Graphics/SVG/1.1/DTD/svg11.dtd" >
<svg xmlns="http://www.w3.org/2000/svg" xmlns:xlink="http://www.w3.org/1999/xlink" version="1.1">
<metadata>
Created by FontForge 20170731 at Fri Oct 20 01:59:58 2023
 By Aleksey,,,
Copyright (c) 2023 by Ethan Woronko.
</metadata>
<defs>
<font id="SludgePit-Backslant" horiz-adv-x="358" >
  <font-face 
    font-family="Sludge Pit Backslant"
    font-weight="700"
    font-style="italic"
    font-stretch="normal"
    units-per-em="2048"
    panose-1="0 0 8 0 0 0 0 0 0 0"
    ascent="1638"
    descent="-410"
    cap-height="1221"
    bbox="-391 -199 1501 1752.5"
    underline-thickness="102"
    underline-position="-307"
    slope="11.7"
    unicode-range="U+0020-1EF2"
  />
<missing-glyph horiz-adv-x="204" 
 />
    <glyph glyph-name=".notdef" horiz-adv-x="204" 
 />
    <glyph glyph-name=".null" horiz-adv-x="0" 
 />
    <glyph glyph-name="nonmarkingreturn" horiz-adv-x="682" 
 />
    <glyph glyph-name="space" unicode=" " horiz-adv-x="768" 
 />
    <glyph glyph-name="exclam" unicode="!" horiz-adv-x="524" 
d="M428 485h-373l-147 729h371zM309 -8h-145v8l-76 340h377q7 -40 10 -80t-2.5 -90.5t-21.5 -88t-52 -63.5t-90 -26z" />
    <glyph glyph-name="quotedbl" unicode="&#x22;" horiz-adv-x="1228" 
d="M938 934l72 14h-4l-97 475q-34 171 -225 129l-149 -28l90 -451q55 16 100.5 20t75.5 -1t54.5 -20t37.5 -29.5t23.5 -38t14 -37t7.5 -33.5zM461 930l71 14h-4l-96 475q-34 171 -225 129l-150 -28l90 -451q55 16 100.5 20t76 -1t54.5 -20t37.5 -29.5t24 -38t14 -37
t7.5 -33.5z" />
    <glyph glyph-name="quotesingle" unicode="'" horiz-adv-x="538" 
d="M248 934l71 14h-4l-96 475q-34 171 -225 129l-150 -28l90 -451q55 16 100.5 20t76 -1t54.5 -20t37.5 -29.5t24 -38t14 -37t7.5 -33.5z" />
    <glyph glyph-name="comma" unicode="," horiz-adv-x="724" 
d="M207 150h459v-152q0 -27 -1.5 -47t-11.5 -50.5t-26.5 -50t-51 -34.5t-81.5 -15h-486v70q21 0 35 1t39 6.5t41.5 15.5t36.5 30.5t30.5 49.5t16 74t0.5 102z" />
    <glyph glyph-name="hyphen" unicode="-" horiz-adv-x="561" 
d="M508 281h-412l-22 81h403z" />
    <glyph glyph-name="period" unicode="." horiz-adv-x="604" 
d="M307 0h-151l-72 346h461v-135q0 -53 -19.5 -93.5t-46.5 -62t-62.5 -35t-61 -17t-48.5 -3.5z" />
    <glyph glyph-name="slash" unicode="/" horiz-adv-x="1228" 
d="M422 0h-236l441 1223h243z" />
    <glyph glyph-name="zero" unicode="0" horiz-adv-x="1077" 
d="M895 946l123 -594q4 -21 6.5 -46t4 -69t-7 -82.5t-25 -75t-52 -58t-86.5 -21.5h-477q-5 0 -13 0.5t-32 4.5t-47 10.5t-52 20.5t-51 32h-12l4 8q-45 42 -59 108l-172 836q-1 4 -2.5 11.5t-2.5 28t1.5 39.5t14 42.5t31 40t55.5 28t85 11.5h449h14.5t37.5 -5t54.5 -14
t60.5 -29t61.5 -48.5t52 -74.5t36.5 -104zM156 1083l151 -712l223 501q-95 216 -374 211zM612 530l-204 -454q20 1 39 4t44.5 9.5t46.5 16t44 24t37 34.5t26.5 46.5t12.5 60t-7 75.5z" />
    <glyph glyph-name="one" unicode="1" horiz-adv-x="1208" 
d="M1223 0h-1041l-39 170h449l-209 917q-37 0 -65.5 -2t-61 -10t-52 -21.5t-29 -38.5t-1.5 -59h-207l-63 271h768l243 -1051h252z" />
    <glyph glyph-name="two" unicode="2" horiz-adv-x="1210" 
d="M1225 0h-1041l-59 293q25 1 66 6.5t140.5 37.5t169 82t111.5 154t9 240q-21 84 -62 140t-100.5 84t-121 38t-144.5 10l40 -186h-251l-78 330h774q120 0 209 -78.5t121 -216.5q3 -15 38.5 -156.5t40.5 -163.5q20 -92 -34 -178.5t-147 -144t-199 -92t-193 -35.5h670z" />
    <glyph glyph-name="three" unicode="3" horiz-adv-x="1175" 
d="M1018 0h-823l-15 76h318q20 0 50 6.5t67 22.5t67 39t48 62t13 85h-616l-23 106h246q7 0 39.5 13t81 44t90 73t64 110t6.5 145q-30 146 -121.5 222.5t-218.5 76.5l-352 2l-31 146h799q97 0 193 -76.5t122 -200.5l61 -288q0 -1 2 -18.5t4 -38t0 -49.5t-7.5 -56t-20 -54.5
t-36 -47.5t-57.5 -33t-83 -13h354v-33t-4 -53.5t-11.5 -70.5t-23.5 -69t-38.5 -65.5t-60 -44t-83.5 -18.5z" />
    <glyph glyph-name="four" unicode="4" horiz-adv-x="1228" 
d="M969 0h-164l-66 268h-616l-219 955h248l206 -879h361l-191 873h408l203 -867q11 -36 13.5 -81t-6.5 -92.5t-29 -87t-58.5 -64.5t-89.5 -25z" />
    <glyph glyph-name="five" unicode="5" horiz-adv-x="1085" 
d="M954 4l-794 -4l-15 70h312q8 1 22 3t49 16t62 35.5t49 65.5t23 101h-564l-194 934h563q144 0 202 -13q138 -30 196 -162q18 -43 30 -98l59 -278l-370 -2q-1 5 -4.5 34.5t-8 57t-17.5 68.5t-30.5 74.5t-49.5 69.5t-73 60.5t-102.5 39.5t-136.5 14l149 -734h799
q0 -59 -9.5 -118.5t-27.5 -113t-49 -87t-70 -33.5z" />
    <glyph glyph-name="six" unicode="6" horiz-adv-x="1085" 
d="M1110 356q0 -59 -9.5 -119.5t-27.5 -114.5t-49 -88t-70 -34h-794l-256 1225h563q144 0 202 -13q138 -30 196 -162q18 -43 30 -98l59 -278l-370 -2q-1 5 -4.5 34.5t-8 57t-17.5 68.5t-30.5 74.5t-49.5 69.5t-73 60.5t-102.5 39.5t-136.5 14l149 -734h799zM369 70h88
q8 1 22 3t49 15.5t62 35t49 65.5t23 102h-338z" />
    <glyph glyph-name="seven" unicode="7" horiz-adv-x="1210" 
d="M133 1229h813l23 -131l-451 -1098h-332l439 1094l-205 -2q-70 -7 -115.5 -26.5t-67.5 -45t-28 -64.5t-2.5 -72.5t14.5 -82.5h-229l-55 284q-9 61 46.5 102.5t149.5 41.5zM465 1096h37h-37z" />
    <glyph glyph-name="eight" unicode="8" horiz-adv-x="1171" 
d="M1128 215l56 -215h-1026l-27 123q-18 76 -13.5 135.5t21 102.5t51.5 74.5t77 50t98 30.5q-77 47 -133.5 88t-115 95t-96.5 116.5t-53 130.5l-59 275h928l2 -7l51 -215q54 -225 -193 -342q86 -49 146.5 -89t126.5 -96t106 -120.5t53 -136.5zM641 1083l-332 -4l33 -153
q4 -23 21.5 -46.5t39 -42.5t61.5 -45.5t68.5 -43t81.5 -46.5q80 129 27 381zM369 68h419l-30 139q-9 41 -57.5 87.5t-91.5 74t-145 87.5q-28 17 -42 25q-134 -98 -53 -413z" />
    <glyph glyph-name="nine" unicode="9" horiz-adv-x="1085" 
d="M969 664l143 -664l-387 -2l-86 455h-252q-76 0 -144 35.5t-118 97t-85.5 139.5t-53.5 166l-68 328h672q6 0 15.5 -0.5t38 -5.5t55.5 -14t62 -30.5t62.5 -50t52.5 -76t37 -106.5zM575 526q8 0 25 1t25 1l-27 136q-1 9 -3.5 24t-14.5 58.5t-29 83t-50.5 87t-75 81.5
t-106 55.5t-141.5 19.5l31 -153q8 -48 14 -77t20 -77t30 -78t44 -65.5t62.5 -55t84.5 -32t111 -9.5z" />
    <glyph glyph-name="colon" unicode=":" horiz-adv-x="604" 
d="M129 768h-152l-71 346h461v-135q0 -53 -19.5 -93.5t-46.5 -62t-62.5 -35t-61 -17t-48.5 -3.5zM307 0h-151l-72 346h461v-135q0 -53 -19.5 -93.5t-46.5 -62t-62.5 -35t-61 -17t-48.5 -3.5z" />
    <glyph glyph-name="semicolon" unicode=";" horiz-adv-x="604" 
d="M250 498h-152l-71 346h460v-135q0 -53 -19 -93.5t-46 -62t-62.5 -35t-61 -17t-48.5 -3.5zM207 160h459v-152q0 -27 -1.5 -46.5t-11.5 -50t-26.5 -50t-51 -34.5t-81.5 -15h-486v69q21 0 35 1t39 6.5t41.5 15.5t36.5 30.5t30.5 49.5t16 74t0.5 102z" />
    <glyph glyph-name="question" unicode="?" horiz-adv-x="1089" 
d="M903 944l62 -278q3 -20 4.5 -43t1.5 -61.5t-8.5 -72.5t-23.5 -66t-46 -52t-74 -21l-162 -6v2l-303 2l-18 92l301 2l-43 220q-4 15 -11 50.5t-13 64.5t-20.5 69.5t-32 72t-49 64t-71.5 53t-99 32.5t-130 9l20 -116h-221l-63 260h671q267 0 328 -277zM389 2l-37 184h334
l37 -186h-334v2z" />
    <glyph glyph-name="A" unicode="A" horiz-adv-x="1085" 
d="M385 0h-227l-252 1225h655q61 0 112.5 -14t85 -36.5t59.5 -49.5t39.5 -54t22 -49.5t10.5 -36.5l3 -14l205 -971h-379l-62 291h-335zM162 1081l147 -727h336l-92 443q-1 6 -2.5 16.5t-12 40t-26 56.5t-46 59.5t-69.5 56.5t-100.5 39.5t-134.5 15.5z" />
    <glyph glyph-name="B" unicode="B" horiz-adv-x="1175" 
d="M895 0h-737l-248 1229h674q97 0 193 -76.5t122 -200.5l62 -288q0 -1 2 -18.5t3.5 -38t0 -49.5t-7 -56t-20 -54.5t-36.5 -47.5t-58 -33t-83 -13h354v-33t-4 -53.5t-11.5 -70.5t-23.5 -69t-38.5 -65.5t-60 -44t-83.5 -18.5zM168 1081l139 -684q11 0 42.5 13.5t74.5 45.5
t79 74.5t54.5 109.5t3.5 142q-15 78 -44 135t-64 90t-83 51t-95 22.5t-107 0.5zM315 326l60 -250h17q154 -5 218 49q76 62 49 201h-344z" />
    <glyph glyph-name="C" unicode="C" horiz-adv-x="1169" 
d="M467 1225h-563l256 -1225l794 4q39 0 70 33.5t49 87t27.5 113t9.5 118.5h-455q13 -75 -3 -132t-47.5 -85t-64.5 -45t-58 -20l-25 -4h-88l-207 1020q75 1 136.5 -14t102.5 -39.5t73 -60.5t49.5 -69.5t30.5 -74.5t17.5 -68.5t8 -57t4.5 -34.5l370 2l-59 278
q-12 57 -32.5 101t-42.5 72.5t-57 48.5t-61 30t-72 15t-71.5 5.5t-76.5 0.5h-15z" />
    <glyph glyph-name="D" unicode="D" horiz-adv-x="1081" 
d="M539 1227h-627l246 -1227h714q46 0 80 14t52 36t29 49t13 54t1.5 49t-3.5 36l-2 14l-143 680q-14 65 -41.5 116t-60 81.5t-68.5 51.5t-69.5 29.5t-60.5 13t-43 4.5zM373 74l-209 1009q70 4 129.5 -8.5t97.5 -35t68.5 -50.5t46.5 -57t26.5 -53t13.5 -39l3 -15l106 -479
q12 -57 3 -99t-33.5 -71t-56 -48.5t-66 -30t-63.5 -16t-47 -6.5z" />
    <glyph glyph-name="E" unicode="E" horiz-adv-x="1159" 
d="M655 354h455q0 -59 -9.5 -118.5t-27.5 -113t-49 -87t-70 -33.5l-794 -2l-256 1223h563q144 0 202 -13q138 -30 196 -162q18 -43 30 -98l59 -278l-370 -2q-1 5 -4.5 34.5t-8 57t-17.5 68t-30.5 74.5t-49.5 70t-73 60t-102.5 39t-136.5 14l110 -546h279l18 -80l-2 4h-278
l80 -397h88q10 1 26 3.5t55.5 20.5t67.5 45.5t45 84.5t4 132z" />
    <glyph glyph-name="F" unicode="F" horiz-adv-x="1085" 
d="M899 956l57 -290v-2h-372q-14 68 -33.5 124.5t-39 96.5t-46.5 72t-48 52t-52 34.5t-49.5 21.5t-50 10.5t-45 3.5h-41.5h-15l110 -538h238l12 -72h-235l92 -469h-225l-254 1227h667q65 0 119 -19t86.5 -46t58.5 -62.5t37 -62.5t19.5 -53t9.5 -28z" />
    <glyph glyph-name="G" unicode="G" horiz-adv-x="1169" 
d="M1110 356q0 -79 -17.5 -159t-54.5 -138.5t-84 -58.5h-794l-256 1225h563q144 0 202 -13q138 -30 196 -162q18 -43 30 -98l59 -278l-370 -2q-1 5 -4.5 34.5t-8 57t-17.5 68.5t-30.5 74.5t-49.5 69.5t-73 60.5t-102.5 39.5t-136.5 14l207 -1020h88q8 1 22 3t49 15.5t62 35
t49 65.5t23 102h-191v65h639z" />
    <glyph glyph-name="H" unicode="H" horiz-adv-x="1198" 
d="M969 0h-164l-66 264h-370l65 -264h-252l-278 1219h248l206 -879h361l-191 872h408l203 -866q11 -36 13.5 -80.5t-6.5 -91.5t-29 -86t-58.5 -63.5t-89.5 -24.5z" />
    <glyph glyph-name="I" unicode="I" horiz-adv-x="376" 
d="M379 0h-223l-252 1221h223z" />
    <glyph glyph-name="J" unicode="J" horiz-adv-x="1083" 
d="M842 1223l182 -871q2 -7 4.5 -20t6 -49.5t3 -69.5t-9.5 -74t-27.5 -70t-54.5 -49t-86 -20h-702l-11 45v4l-4 14l-28 142h227l31 -142h63q4 0 9.5 0.5t24.5 2.5t35.5 7.5t40.5 14.5t40.5 23.5t36.5 36t26.5 50t11.5 66t-8 84.5l-184 875h373z" />
    <glyph glyph-name="K" unicode="K" horiz-adv-x="1148" 
d="M817 350q60 -7 111 -30t85.5 -54.5t62 -68t43 -71t25.5 -63t14 -45.5l3 -18h-475q-16 84 -48 151.5t-70.5 106.5t-64 58t-48.5 30l-138 -2l68 -344h-227l-254 1223h231l168 -830q-3 -5 5 -5q30 -2 89 33q120 71 153 197q20 78 3 170l-82 433h373l108 -553
q12 -49 14.5 -96.5t-6.5 -98.5t-45.5 -84.5t-97.5 -38.5z" />
    <glyph glyph-name="L" unicode="L" horiz-adv-x="1175" 
d="M131 1225h-225l252 -1225h757q49 0 86.5 12t60.5 33t39 48t22 56.5t8 59t-1 56.5t-6.5 48t-6.5 33l-3 12l-461 -6q13 -73 0.5 -123t-42.5 -81t-61 -48t-55 -22l-24 -6h-100z" />
    <glyph glyph-name="M" unicode="M" horiz-adv-x="1488" 
d="M1307 944l194 -944h-371l-169 811q-2 5 -11 32.5t-16.5 47.5t-27.5 50.5t-45 53t-67.5 43.5t-95.5 31q35 -51 50 -123l194 -946h-211l-170 813q-2 5 -13.5 39t-22 58t-39.5 60t-66.5 58t-102.5 38t-147 15l223 -1081h-225l-264 1225h516q19 0 31 -2h528q35 0 79.5 -13
t96 -41.5t94 -87t58.5 -137.5z" />
    <glyph glyph-name="N" unicode="N" horiz-adv-x="1089" 
d="M393 0h-225l-264 1225h676q27 0 60.5 -7t75.5 -26.5t78.5 -49.5t68 -81t44.5 -115l195 -946h-371l-170 813q-2 5 -13.5 39t-22 58t-39.5 60t-66.5 58t-102.5 38t-147 15z" />
    <glyph glyph-name="O" unicode="O" horiz-adv-x="1077" 
d="M858 0h-477q-9 0 -24.5 1.5t-56.5 11.5t-74 27.5t-65 55t-42 88.5l-172 836q-1 4 -2.5 11.5t-2.5 28t1.5 39.5t14 42.5t31 40t55.5 28t85 11.5h449h14.5t37.5 -5t54.5 -14t60.5 -29t61.5 -48.5t52 -74.5t36.5 -104l123 -594q4 -21 6.5 -46t4 -69t-7 -82.5t-25 -75
t-52 -58t-86.5 -21.5zM156 1083l215 -1009q11 0 23 0.5t33 2.5t39.5 6.5t43 11.5t43 17.5t39.5 25.5t33 34.5t23 45t10 57.5t-7 71l-98 459q-1 2 -6 18t-11 35t-20.5 45t-33 50.5t-49.5 49t-68.5 42.5t-91.5 28.5t-117 9.5z" />
    <glyph glyph-name="P" unicode="P" horiz-adv-x="1085" 
d="M389 0h-231l-252 1229l669 -2q57 0 106 -15.5t81.5 -39.5t58 -54t39.5 -59.5t23.5 -53.5t12.5 -39l3 -16l64 -286q16 -79 8.5 -134t-34.5 -89.5t-62.5 -54t-75 -27t-72.5 -9t-55 1.5l-21 2h-336zM164 1083l135 -675q2 -1 19 2t44 11.5t57.5 26.5t59.5 46.5t50 71
t29.5 100.5t-3.5 135q-12 75 -42.5 129.5t-68 83.5t-89 46t-95 20.5t-96.5 2.5z" />
    <glyph glyph-name="Q" unicode="Q" horiz-adv-x="1077" 
d="M858 0h-158q73 -1 130.5 -19.5t86.5 -45t47.5 -52.5t23.5 -45l5 -18h-321q-8 39 -31 71t-49.5 50.5t-61 32t-57 18.5t-45.5 8h-47q-9 0 -24.5 1.5t-56.5 11.5t-74 27.5t-65 55t-42 88.5l-172 836q-1 4 -2.5 11.5t-2.5 28t1.5 39.5t14 42.5t31 40t55.5 28t85 11.5h449
h14.5t37.5 -5t54.5 -14t60.5 -29t61.5 -48.5t52 -74.5t36.5 -104l123 -594q4 -20 7 -42.5t4.5 -58.5t-1.5 -68t-13.5 -66.5t-29 -59.5t-51 -41t-76.5 -16zM156 1094l215 -1010q11 0 23 0.5t33 2.5t39.5 6.5t43 11.5t43 17.5t39.5 25.5t33 34.5t23 45t10 57.5t-7 71l-98 459
q-1 2 -6 18t-11 35t-20.5 45.5t-33 51t-49.5 49t-68.5 42.5t-91.5 28.5t-117 9.5z" />
    <glyph glyph-name="R" unicode="R" horiz-adv-x="1150" 
d="M842 352q56 -10 103.5 -34.5t79.5 -56t57.5 -67.5t40 -70.5t24 -62t13.5 -44.5l3 -17h-475q-40 214 -182 319h-182l65 -319h-231l-252 1229l669 -2q57 0 106 -15.5t81.5 -39.5t58 -54t39.5 -59.5t23.5 -53.5t12.5 -39l3 -16l64 -286q13 -71 10.5 -122t-23.5 -89.5
t-47 -61.5t-61 -39zM164 1083l135 -675q2 -1 19 2t44 11.5t57.5 26.5t59.5 46.5t50 71t29.5 100.5t-3.5 135q-12 75 -42.5 129.5t-68 83.5t-89 46t-95 20.5t-96.5 2.5z" />
    <glyph glyph-name="S" unicode="S" horiz-adv-x="1083" 
d="M1098 0h-707q-9 0 -24.5 1t-56.5 9t-74.5 22.5t-65 47t-41.5 76.5l-45 200h223l82 -284q7 -1 18.5 -1.5t44 1.5t61.5 7.5t63.5 20.5t57.5 37t35.5 60.5t4.5 87.5q-2 15 -10 28.5t-22 25.5t-28.5 22.5t-37 21t-39.5 17.5t-43.5 16.5t-41.5 14t-42 13t-37 11.5
q-148 47 -258 160t-144 278l-67 328h671q6 0 15.5 -0.5t38 -5.5t55.5 -14t62 -30.5t63 -50t53 -76t37 -106.5l55 -272h-370q0 9 -0.5 24t-8 58.5t-21.5 82.5t-45.5 86.5t-74 81.5t-113 56t-157.5 20l31 -153q10 -59 21.5 -100.5t37 -91t62.5 -84t99.5 -66.5t145.5 -52
q84 -20 134 -33.5t108.5 -32.5t92.5 -38.5t67 -46.5t50.5 -60.5t26.5 -76.5z" />
    <glyph glyph-name="T" unicode="T" horiz-adv-x="1421" 
d="M852 0h-219l-221 1067q-162 0 -223.5 -27t-61.5 -96h-217q0 46 6.5 84t15.5 66t27 49.5t33 35t42 23.5t44.5 14.5t50.5 7t51 3t53 0.5h674q60 0 109 -17t83.5 -43t62.5 -67t44.5 -80t31.5 -91t22.5 -90.5t17.5 -88.5t16 -76h-374l-35 137q-19 75 -40.5 125.5t-41 77.5
t-47.5 40.5t-51 17t-61 5.5h-7z" />
    <glyph glyph-name="U" unicode="U" horiz-adv-x="1085" 
d="M131 1223h-225l252 -1223h696q51 0 88 17.5t56 48.5t29.5 65.5t10.5 78t-3 75.5t-9 67l-184 875h-373l197 -942q9 -47 5 -81.5t-19.5 -57t-35.5 -37t-42.5 -22t-41 -10.5t-30.5 -3h-13h-116z" />
    <glyph glyph-name="V" unicode="V" horiz-adv-x="1081" 
d="M840 1227l92 -432q16 -75 -7 -147t-72.5 -129.5t-112.5 -112.5t-127.5 -104.5t-117 -95.5t-82 -96t-20.5 -98l2 -12h-235l-39 188l-217 1041h231l174 -832q27 30 58.5 57t55.5 45t49 36.5t42 34t31.5 36t21 43.5t6.5 55t-8 72l-92 451h367z" />
    <glyph glyph-name="W" unicode="W" horiz-adv-x="1466" 
d="M1221 1225l186 -871q14 -54 10 -116t-19.5 -115.5t-54.5 -88.5t-94 -34h-1091l-254 1229h233l238 -1153h13h38t42 2.5t46 7t43 14t40.5 22.5t31 34.5t22 48.5t7 64.5t-8.5 82.5l-178 875h223l180 -877q15 -48 12.5 -133t-32.5 -139q31 14 58.5 32t61.5 51t49.5 82.5
t6.5 108.5l-180 873h371z" />
    <glyph glyph-name="X" unicode="X" horiz-adv-x="1171" 
d="M1128 215l56 -215h-381l-45 207q-9 41 -57.5 87.5t-91.5 74t-145 87.5q-28 17 -42 25q-148 -109 -33 -481h-231l-27 123q-39 181 24 272t210 121q-77 47 -133.5 88t-115 95t-96.5 116.5t-53 130.5l-59 275h371l63 -295q4 -23 21.5 -46.5t39 -42.5t61.5 -45.5t68.5 -43
t81.5 -46.5q101 160 -8 510l232 2l51 -215q54 -225 -193 -342q86 -49 146.5 -89t126.5 -96t106 -120.5t53 -136.5z" />
    <glyph glyph-name="Y" unicode="Y" horiz-adv-x="1026" 
d="M414 1217h372l252 -1217h-372l-45 207q-9 42 -48 85.5t-96.5 84t-125.5 84.5t-137.5 95.5t-130.5 107.5t-107.5 129t-63.5 153l-59 275h223l63 -295q10 -53 55.5 -107.5t104 -98t116.5 -84t101.5 -80.5t50.5 -73z" />
    <glyph glyph-name="Z" unicode="Z" horiz-adv-x="1210" 
d="M686 354h465q6 -94 -9 -163t-39 -104.5t-60 -56.5t-62 -25.5t-55 -4.5h-736l-16 70l451 1022l-201 -5q-71 -6 -117.5 -25.5t-68.5 -44.5t-28.5 -64.5t-3 -73t14.5 -82.5h-229l-55 284q-9 61 46.5 102.5t149.5 41.5h711l22 -131l-460 -1020h73q77 0 131 45.5t72.5 109.5
t3.5 125zM465 1092h37h-37z" />
    <glyph glyph-name="grave" unicode="`" horiz-adv-x="1228" 
d="M55 1386l78 70q101 89 178 0l217 -248l-34 -30q-13 15 -23.5 24.5t-33.5 20t-46 8.5t-57.5 -21t-71.5 -57z" />
    <glyph glyph-name="a" unicode="a" 
 />
    <glyph glyph-name="b" unicode="b" 
 />
    <glyph glyph-name="c" unicode="c" 
 />
    <glyph glyph-name="d" unicode="d" 
 />
    <glyph glyph-name="e" unicode="e" 
 />
    <glyph glyph-name="f" unicode="f" 
 />
    <glyph glyph-name="g" unicode="g" 
 />
    <glyph glyph-name="h" unicode="h" 
 />
    <glyph glyph-name="i" unicode="i" 
 />
    <glyph glyph-name="j" unicode="j" 
 />
    <glyph glyph-name="k" unicode="k" 
 />
    <glyph glyph-name="l" unicode="l" 
 />
    <glyph glyph-name="m" unicode="m" 
 />
    <glyph glyph-name="n" unicode="n" horiz-adv-x="1228" 
 />
    <glyph glyph-name="o" unicode="o" 
 />
    <glyph glyph-name="p" unicode="p" 
 />
    <glyph glyph-name="q" unicode="q" 
 />
    <glyph glyph-name="r" unicode="r" 
 />
    <glyph glyph-name="s" unicode="s" 
 />
    <glyph glyph-name="t" unicode="t" 
 />
    <glyph glyph-name="u" unicode="u" 
 />
    <glyph glyph-name="v" unicode="v" 
 />
    <glyph glyph-name="w" unicode="w" 
 />
    <glyph glyph-name="x" unicode="x" 
 />
    <glyph glyph-name="y" unicode="y" 
 />
    <glyph glyph-name="z" unicode="z" 
 />
    <glyph glyph-name="dieresis" unicode="&#xa8;" horiz-adv-x="1228" 
d="M113 1149h-107l-51 244h324v-95q0 -46 -19 -78.5t-49 -46.5t-53 -19t-45 -5zM567 1149h-106l-49 244h323v-95q0 -46 -19.5 -78.5t-49.5 -46.5t-53.5 -19t-45.5 -5z" />
    <glyph glyph-name="acute" unicode="&#xb4;" horiz-adv-x="1228" 
d="M453 1456l77 -70l-206 -233q-37 38 -71.5 57t-57.5 21t-46 -8.5t-33.5 -20t-23.5 -24.5l-35 30l217 248q77 90 179 0z" />
    <glyph glyph-name="Agrave" unicode="&#xc0;" horiz-adv-x="1085" 
d="M522 1356l-35 -31q-13 15 -23.5 24.5t-33.5 20t-45.5 8.5t-57 -21t-71.5 -57l-207 234l78 70q101 89 178 0zM893 971l205 -971h-379l-62 291h-335l63 -291h-227l-252 1225h655q61 0 112.5 -14t85 -36.5t59.5 -49.5t39.5 -54t22 -49.5t10.5 -36.5zM162 1081l147 -727h336
l-92 443q-1 6 -2.5 16.5t-12 40t-26 56.5t-46 59.5t-69.5 56.5t-100.5 39.5t-134.5 15.5z" />
    <glyph glyph-name="Agrave" unicode="&#xe0;" horiz-adv-x="1085" 
d="M522 1356l-35 -31q-13 15 -23.5 24.5t-33.5 20t-45.5 8.5t-57 -21t-71.5 -57l-207 234l78 70q101 89 178 0zM893 971l205 -971h-379l-62 291h-335l63 -291h-227l-252 1225h655q61 0 112.5 -14t85 -36.5t59.5 -49.5t39.5 -54t22 -49.5t10.5 -36.5zM162 1081l147 -727h336
l-92 443q-1 6 -2.5 16.5t-12 40t-26 56.5t-46 59.5t-69.5 56.5t-100.5 39.5t-134.5 15.5z" />
    <glyph glyph-name="Aacute" unicode="&#xc1;" horiz-adv-x="1085" 
d="M573 1540l-206 -233q-37 38 -71.5 57t-57.5 21t-46 -9t-33.5 -20.5t-23.5 -24.5l-35 31l217 248q77 90 179 0zM893 971l205 -971h-379l-62 291h-335l63 -291h-227l-252 1225h655q61 0 112.5 -14t85 -36.5t59.5 -49.5t39.5 -54t22 -49.5t10.5 -36.5zM162 1081l147 -727
h336l-92 443q-1 6 -2.5 16.5t-12 40t-26 56.5t-46 59.5t-69.5 56.5t-100.5 39.5t-134.5 15.5z" />
    <glyph glyph-name="Aacute" unicode="&#xe1;" horiz-adv-x="1085" 
d="M573 1540l-206 -233q-37 38 -71.5 57t-57.5 21t-46 -9t-33.5 -20.5t-23.5 -24.5l-35 31l217 248q77 90 179 0zM893 971l205 -971h-379l-62 291h-335l63 -291h-227l-252 1225h655q61 0 112.5 -14t85 -36.5t59.5 -49.5t39.5 -54t22 -49.5t10.5 -36.5zM162 1081l147 -727
h336l-92 443q-1 6 -2.5 16.5t-12 40t-26 56.5t-46 59.5t-69.5 56.5t-100.5 39.5t-134.5 15.5z" />
    <glyph glyph-name="Acircumflex" unicode="&#xc2;" horiz-adv-x="1085" 
d="M307 1292l-166 150l-221 -150l-82 -4l367 254h51l-14 -31l-35 -22l35 10l14 43l344 -250h-293zM893 971l205 -971h-379l-62 291h-335l63 -291h-227l-252 1225h655q61 0 112.5 -14t85 -36.5t59.5 -49.5t39.5 -54t22 -49.5t10.5 -36.5zM162 1081l147 -727h336l-92 443
q-1 6 -2.5 16.5t-12 40t-26 56.5t-46 59.5t-69.5 56.5t-100.5 39.5t-134.5 15.5z" />
    <glyph glyph-name="Acircumflex" unicode="&#xe2;" horiz-adv-x="1085" 
d="M307 1292l-166 150l-221 -150l-82 -4l367 254h51l-14 -31l-35 -22l35 10l14 43l344 -250h-293zM893 971l205 -971h-379l-62 291h-335l63 -291h-227l-252 1225h655q61 0 112.5 -14t85 -36.5t59.5 -49.5t39.5 -54t22 -49.5t10.5 -36.5zM162 1081l147 -727h336l-92 443
q-1 6 -2.5 16.5t-12 40t-26 56.5t-46 59.5t-69.5 56.5t-100.5 39.5t-134.5 15.5z" />
    <glyph glyph-name="Atilde" unicode="&#xc3;" horiz-adv-x="1085" 
d="M238 1399q-18 4 -30 6t-34 -2t-37 -16.5t-31 -42.5t-24 -76l-262 67l20 86q3 11 5 16t7 17t9.5 18l12 16t16.5 14.5t20.5 8.5t26.5 3.5t32 -5.5l279 -71l2 2v-2q55 -11 82 2q53 26 71 129l263 -68l-21 -88q-3 -10 -5.5 -18t-7.5 -20.5t-11.5 -19.5t-16.5 -16.5t-22 -12
t-29 -4.5t-37 5zM893 971l205 -971h-379l-62 291h-335l63 -291h-227l-252 1225h655q61 0 112.5 -14t85 -36.5t59.5 -49.5t39.5 -54t22 -49.5t10.5 -36.5zM162 1081l147 -727h336l-92 443q-1 6 -2.5 16.5t-12 40t-26 56.5t-46 59.5t-69.5 56.5t-100.5 39.5t-134.5 15.5z" />
    <glyph glyph-name="Atilde" unicode="&#xe3;" horiz-adv-x="1085" 
d="M238 1399q-18 4 -30 6t-34 -2t-37 -16.5t-31 -42.5t-24 -76l-262 67l20 86q3 11 5 16t7 17t9.5 18l12 16t16.5 14.5t20.5 8.5t26.5 3.5t32 -5.5l279 -71l2 2v-2q55 -11 82 2q53 26 71 129l263 -68l-21 -88q-3 -10 -5.5 -18t-7.5 -20.5t-11.5 -19.5t-16.5 -16.5t-22 -12
t-29 -4.5t-37 5zM893 971l205 -971h-379l-62 291h-335l63 -291h-227l-252 1225h655q61 0 112.5 -14t85 -36.5t59.5 -49.5t39.5 -54t22 -49.5t10.5 -36.5zM162 1081l147 -727h336l-92 443q-1 6 -2.5 16.5t-12 40t-26 56.5t-46 59.5t-69.5 56.5t-100.5 39.5t-134.5 15.5z" />
    <glyph glyph-name="Adieresis" unicode="&#xc4;" horiz-adv-x="1085" 
d="M-25 1290h-106l-51 244h323v-94q0 -46 -19 -78.5t-48.5 -46.5t-53.5 -19.5t-45 -5.5zM430 1290h-106l-50 244h324v-94q0 -46 -19.5 -79t-49.5 -46.5t-54 -19t-45 -5.5zM385 0h-227l-252 1225h655q61 0 112.5 -14t85 -36.5t59.5 -49.5t39.5 -54t22 -49.5t10.5 -36.5l3 -14
l205 -971h-379l-62 291h-335zM162 1081l147 -727h336l-92 443q-1 6 -2.5 16.5t-12 40t-26 56.5t-46 59.5t-69.5 56.5t-100.5 39.5t-134.5 15.5z" />
    <glyph glyph-name="Adieresis" unicode="&#xe4;" horiz-adv-x="1085" 
d="M-25 1290h-106l-51 244h323v-94q0 -46 -19 -78.5t-48.5 -46.5t-53.5 -19.5t-45 -5.5zM430 1290h-106l-50 244h324v-94q0 -46 -19.5 -79t-49.5 -46.5t-54 -19t-45 -5.5zM385 0h-227l-252 1225h655q61 0 112.5 -14t85 -36.5t59.5 -49.5t39.5 -54t22 -49.5t10.5 -36.5l3 -14
l205 -971h-379l-62 291h-335zM162 1081l147 -727h336l-92 443q-1 6 -2.5 16.5t-12 40t-26 56.5t-46 59.5t-69.5 56.5t-100.5 39.5t-134.5 15.5z" />
    <glyph glyph-name="Egrave" unicode="&#xc8;" horiz-adv-x="1159" 
d="M528 1356l-34 -31q-13 15 -23.5 24.5t-33.5 20t-46 8.5t-57.5 -21t-71.5 -57l-207 234l78 70q101 89 178 0zM655 354h455q0 -59 -9.5 -118.5t-27.5 -113t-49 -87t-70 -33.5l-794 -2l-256 1223h563q144 0 202 -13q138 -30 196 -162q18 -43 30 -98l59 -278l-370 -2
q-1 5 -4.5 34.5t-8 57t-17.5 68t-30.5 74.5t-49.5 70t-73 60t-102.5 39t-136.5 14l110 -546h279l18 -80l-2 4h-278l80 -397h88q10 1 26 3.5t55.5 20.5t67.5 45.5t45 84.5t4 132z" />
    <glyph glyph-name="Egrave" unicode="&#xe8;" horiz-adv-x="1159" 
d="M528 1356l-34 -31q-13 15 -23.5 24.5t-33.5 20t-46 8.5t-57.5 -21t-71.5 -57l-207 234l78 70q101 89 178 0zM655 354h455q0 -59 -9.5 -118.5t-27.5 -113t-49 -87t-70 -33.5l-794 -2l-256 1223h563q144 0 202 -13q138 -30 196 -162q18 -43 30 -98l59 -278l-370 -2
q-1 5 -4.5 34.5t-8 57t-17.5 68t-30.5 74.5t-49.5 70t-73 60t-102.5 39t-136.5 14l110 -546h279l18 -80l-2 4h-278l80 -397h88q10 1 26 3.5t55.5 20.5t67.5 45.5t45 84.5t4 132z" />
    <glyph glyph-name="Eacute" unicode="&#xc9;" horiz-adv-x="1159" 
d="M580 1540l-207 -233q-37 38 -71.5 57t-57.5 21t-46 -9t-33.5 -20.5t-23.5 -24.5l-35 31l218 248q77 89 178 0zM655 354h455q0 -59 -9.5 -118.5t-27.5 -113t-49 -87t-70 -33.5l-794 -2l-256 1223h563q144 0 202 -13q138 -30 196 -162q18 -43 30 -98l59 -278l-370 -2
q-1 5 -4.5 34.5t-8 57t-17.5 68t-30.5 74.5t-49.5 70t-73 60t-102.5 39t-136.5 14l110 -546h279l18 -80l-2 4h-278l80 -397h88q10 1 26 3.5t55.5 20.5t67.5 45.5t45 84.5t4 132z" />
    <glyph glyph-name="Eacute" unicode="&#xe9;" horiz-adv-x="1159" 
d="M580 1540l-207 -233q-37 38 -71.5 57t-57.5 21t-46 -9t-33.5 -20.5t-23.5 -24.5l-35 31l218 248q77 89 178 0zM655 354h455q0 -59 -9.5 -118.5t-27.5 -113t-49 -87t-70 -33.5l-794 -2l-256 1223h563q144 0 202 -13q138 -30 196 -162q18 -43 30 -98l59 -278l-370 -2
q-1 5 -4.5 34.5t-8 57t-17.5 68t-30.5 74.5t-49.5 70t-73 60t-102.5 39t-136.5 14l110 -546h279l18 -80l-2 4h-278l80 -397h88q10 1 26 3.5t55.5 20.5t67.5 45.5t45 84.5t4 132z" />
    <glyph glyph-name="Ecircumflex" unicode="&#xca;" horiz-adv-x="1159" 
d="M313 1292l-166 150l-221 -150l-82 -4l367 254h51l-14 -31l-35 -22l35 10l14 43l344 -250h-293zM655 354h455q0 -59 -9.5 -118.5t-27.5 -113t-49 -87t-70 -33.5l-794 -2l-256 1223h563q144 0 202 -13q138 -30 196 -162q18 -43 30 -98l59 -278l-370 -2q-1 5 -4.5 34.5
t-8 57t-17.5 68t-30.5 74.5t-49.5 70t-73 60t-102.5 39t-136.5 14l110 -546h279l18 -80l-2 4h-278l80 -397h88q10 1 26 3.5t55.5 20.5t67.5 45.5t45 84.5t4 132z" />
    <glyph glyph-name="Ecircumflex" unicode="&#xea;" horiz-adv-x="1159" 
d="M313 1292l-166 150l-221 -150l-82 -4l367 254h51l-14 -31l-35 -22l35 10l14 43l344 -250h-293zM655 354h455q0 -59 -9.5 -118.5t-27.5 -113t-49 -87t-70 -33.5l-794 -2l-256 1223h563q144 0 202 -13q138 -30 196 -162q18 -43 30 -98l59 -278l-370 -2q-1 5 -4.5 34.5
t-8 57t-17.5 68t-30.5 74.5t-49.5 70t-73 60t-102.5 39t-136.5 14l110 -546h279l18 -80l-2 4h-278l80 -397h88q10 1 26 3.5t55.5 20.5t67.5 45.5t45 84.5t4 132z" />
    <glyph glyph-name="Edieresis" unicode="&#xcb;" horiz-adv-x="1159" 
d="M147 1534v-94q0 -46 -19 -78.5t-48.5 -46.5t-53 -19.5t-44.5 -5.5h-107l-51 244h323zM436 1290h-106l-49 244h323v-94q0 -46 -19.5 -79t-49.5 -46.5t-54 -19t-45 -5.5zM655 354h455q0 -59 -9.5 -118.5t-27.5 -113t-49 -87t-70 -33.5l-794 -2l-256 1223h563q144 0 202 -13
q138 -30 196 -162q18 -43 30 -98l59 -278l-370 -2q-1 5 -4.5 34.5t-8 57t-17.5 68t-30.5 74.5t-49.5 70t-73 60t-102.5 39t-136.5 14l110 -546h279l18 -80l-2 4h-278l80 -397h88q10 1 26 3.5t55.5 20.5t67.5 45.5t45 84.5t4 132z" />
    <glyph glyph-name="Edieresis" unicode="&#xeb;" horiz-adv-x="1159" 
d="M147 1534v-94q0 -46 -19 -78.5t-48.5 -46.5t-53 -19.5t-44.5 -5.5h-107l-51 244h323zM436 1290h-106l-49 244h323v-94q0 -46 -19.5 -79t-49.5 -46.5t-54 -19t-45 -5.5zM655 354h455q0 -59 -9.5 -118.5t-27.5 -113t-49 -87t-70 -33.5l-794 -2l-256 1223h563q144 0 202 -13
q138 -30 196 -162q18 -43 30 -98l59 -278l-370 -2q-1 5 -4.5 34.5t-8 57t-17.5 68t-30.5 74.5t-49.5 70t-73 60t-102.5 39t-136.5 14l110 -546h279l18 -80l-2 4h-278l80 -397h88q10 1 26 3.5t55.5 20.5t67.5 45.5t45 84.5t4 132z" />
    <glyph glyph-name="Igrave" unicode="&#xcc;" horiz-adv-x="376" 
d="M313 1454l-34 -31q-13 15 -23.5 24.5t-33.5 20.5t-46 9t-57.5 -21t-71.5 -57l-207 233l78 70q101 89 178 0zM-96 1221h223l252 -1221h-223z" />
    <glyph glyph-name="Igrave" unicode="&#xec;" horiz-adv-x="376" 
d="M313 1454l-34 -31q-13 15 -23.5 24.5t-33.5 20.5t-46 9t-57.5 -21t-71.5 -57l-207 233l78 70q101 89 178 0zM-96 1221h223l252 -1221h-223z" />
    <glyph glyph-name="Iacute" unicode="&#xcd;" horiz-adv-x="376" 
d="M365 1638l-207 -233q-37 38 -71.5 57t-57.5 21t-46 -8.5t-33.5 -20t-23.5 -24.5l-35 30l218 248q77 89 178 0zM-96 1221h223l252 -1221h-223z" />
    <glyph glyph-name="Iacute" unicode="&#xed;" horiz-adv-x="376" 
d="M365 1638l-207 -233q-37 38 -71.5 57t-57.5 21t-46 -8.5t-33.5 -20t-23.5 -24.5l-35 30l218 248q77 89 178 0zM-96 1221h223l252 -1221h-223z" />
    <glyph glyph-name="Icircumflex" unicode="&#xce;" horiz-adv-x="376" 
d="M391 1391h-293l-166 149l-221 -149l-82 -5l367 254h51l-14 -30l-35 -23l35 10l14 43zM156 0l-252 1221h223l252 -1221h-223z" />
    <glyph glyph-name="Icircumflex" unicode="&#xee;" horiz-adv-x="376" 
d="M391 1391h-293l-166 149l-221 -149l-82 -5l367 254h51l-14 -30l-35 -23l35 10l14 43zM156 0l-252 1221h223l252 -1221h-223z" />
    <glyph glyph-name="Idieresis" unicode="&#xcf;" horiz-adv-x="376" 
d="M-233 1389h-107l-51 243h323v-94q0 -46 -19 -78.5t-48.5 -46.5t-52.5 -19t-45 -5zM221 1389h-106l-49 243h323v-94q0 -46 -19.5 -78.5t-49.5 -46.5t-53.5 -19t-45.5 -5zM379 0h-223l-252 1221h223z" />
    <glyph glyph-name="Idieresis" unicode="&#xef;" horiz-adv-x="376" 
d="M-233 1389h-107l-51 243h323v-94q0 -46 -19 -78.5t-48.5 -46.5t-52.5 -19t-45 -5zM221 1389h-106l-49 243h323v-94q0 -46 -19.5 -78.5t-49.5 -46.5t-53.5 -19t-45.5 -5zM379 0h-223l-252 1221h223z" />
    <glyph glyph-name="Ntilde" unicode="&#xd1;" horiz-adv-x="1089" 
d="M254 1573q-18 4 -30 6t-34 -2t-37 -16.5t-31 -42.5t-24 -76l-262 67l21 86q3 11 5 16t7 17t9.5 18l12 16t16.5 14.5t20.5 8.5t26.5 3.5t32 -5.5l278 -71l2 2v-2q55 -11 83 2q54 25 71 129l262 -68l-20 -88q-3 -12 -6.5 -21.5t-10.5 -23.5t-16 -22t-23 -16.5t-31.5 -7.5
t-42.5 5zM907 946l195 -946h-371l-170 813q-2 5 -13.5 39t-22 58t-39.5 60t-66.5 58t-102.5 38t-147 15l223 -1081h-225l-264 1225h676q27 0 60.5 -7t75.5 -26.5t78.5 -49.5t68 -81t44.5 -115z" />
    <glyph glyph-name="Ntilde" unicode="&#xf1;" horiz-adv-x="1089" 
d="M254 1573q-18 4 -30 6t-34 -2t-37 -16.5t-31 -42.5t-24 -76l-262 67l21 86q3 11 5 16t7 17t9.5 18l12 16t16.5 14.5t20.5 8.5t26.5 3.5t32 -5.5l278 -71l2 2v-2q55 -11 83 2q54 25 71 129l262 -68l-20 -88q-3 -12 -6.5 -21.5t-10.5 -23.5t-16 -22t-23 -16.5t-31.5 -7.5
t-42.5 5zM907 946l195 -946h-371l-170 813q-2 5 -13.5 39t-22 58t-39.5 60t-66.5 58t-102.5 38t-147 15l223 -1081h-225l-264 1225h676q27 0 60.5 -7t75.5 -26.5t78.5 -49.5t68 -81t44.5 -115z" />
    <glyph glyph-name="Ograve" unicode="&#xd2;" horiz-adv-x="1077" 
d="M532 1362l-34 -31q-13 15 -23.5 24.5t-33.5 20.5t-46 9t-57.5 -21t-71.5 -57l-207 233l78 70q101 89 178 0zM895 946l123 -594q4 -21 6.5 -46t4 -69t-7 -82.5t-25 -75t-52 -58t-86.5 -21.5h-477q-9 0 -24.5 1.5t-56.5 11.5t-74 27.5t-65 55t-42 88.5l-172 836
q-1 4 -2.5 11.5t-2.5 28t1.5 39.5t14 42.5t31 40t55.5 28t85 11.5h449h14.5t37.5 -5t54.5 -14t60.5 -29t61.5 -48.5t52 -74.5t36.5 -104zM156 1083l215 -1009q11 0 23 0.5t33 2.5t39.5 6.5t43 11.5t43 17.5t39.5 25.5t33 34.5t23 45t10 57.5t-7 71l-98 459q-1 2 -6 18
t-11 35t-20.5 45t-33 50.5t-49.5 49t-68.5 42.5t-91.5 28.5t-117 9.5z" />
    <glyph glyph-name="Ograve" unicode="&#xf2;" horiz-adv-x="1077" 
d="M532 1362l-34 -31q-13 15 -23.5 24.5t-33.5 20.5t-46 9t-57.5 -21t-71.5 -57l-207 233l78 70q101 89 178 0zM895 946l123 -594q4 -21 6.5 -46t4 -69t-7 -82.5t-25 -75t-52 -58t-86.5 -21.5h-477q-9 0 -24.5 1.5t-56.5 11.5t-74 27.5t-65 55t-42 88.5l-172 836
q-1 4 -2.5 11.5t-2.5 28t1.5 39.5t14 42.5t31 40t55.5 28t85 11.5h449h14.5t37.5 -5t54.5 -14t60.5 -29t61.5 -48.5t52 -74.5t36.5 -104zM156 1083l215 -1009q11 0 23 0.5t33 2.5t39.5 6.5t43 11.5t43 17.5t39.5 25.5t33 34.5t23 45t10 57.5t-7 71l-98 459q-1 2 -6 18
t-11 35t-20.5 45t-33 50.5t-49.5 49t-68.5 42.5t-91.5 28.5t-117 9.5z" />
    <glyph glyph-name="Oacute" unicode="&#xd3;" horiz-adv-x="1077" 
d="M584 1546l-207 -233q-37 38 -71.5 57t-57.5 21t-46 -9t-33.5 -20.5t-23.5 -24.5l-34 31l217 248q77 89 178 0zM895 946l123 -594q4 -21 6.5 -46t4 -69t-7 -82.5t-25 -75t-52 -58t-86.5 -21.5h-477q-9 0 -24.5 1.5t-56.5 11.5t-74 27.5t-65 55t-42 88.5l-172 836
q-1 4 -2.5 11.5t-2.5 28t1.5 39.5t14 42.5t31 40t55.5 28t85 11.5h449h14.5t37.5 -5t54.5 -14t60.5 -29t61.5 -48.5t52 -74.5t36.5 -104zM156 1083l215 -1009q11 0 23 0.5t33 2.5t39.5 6.5t43 11.5t43 17.5t39.5 25.5t33 34.5t23 45t10 57.5t-7 71l-98 459q-1 2 -6 18
t-11 35t-20.5 45t-33 50.5t-49.5 49t-68.5 42.5t-91.5 28.5t-117 9.5z" />
    <glyph glyph-name="Oacute" unicode="&#xf3;" horiz-adv-x="1077" 
d="M584 1546l-207 -233q-37 38 -71.5 57t-57.5 21t-46 -9t-33.5 -20.5t-23.5 -24.5l-34 31l217 248q77 89 178 0zM895 946l123 -594q4 -21 6.5 -46t4 -69t-7 -82.5t-25 -75t-52 -58t-86.5 -21.5h-477q-9 0 -24.5 1.5t-56.5 11.5t-74 27.5t-65 55t-42 88.5l-172 836
q-1 4 -2.5 11.5t-2.5 28t1.5 39.5t14 42.5t31 40t55.5 28t85 11.5h449h14.5t37.5 -5t54.5 -14t60.5 -29t61.5 -48.5t52 -74.5t36.5 -104zM156 1083l215 -1009q11 0 23 0.5t33 2.5t39.5 6.5t43 11.5t43 17.5t39.5 25.5t33 34.5t23 45t10 57.5t-7 71l-98 459q-1 2 -6 18
t-11 35t-20.5 45t-33 50.5t-49.5 49t-68.5 42.5t-91.5 28.5t-117 9.5z" />
    <glyph glyph-name="Ocircumflex" unicode="&#xd4;" horiz-adv-x="1077" 
d="M610 1298h-293l-165 150l-222 -150l-82 -4l367 254h51l-14 -30l-35 -23l35 10l14 43zM895 946l123 -594q4 -21 6.5 -46t4 -69t-7 -82.5t-25 -75t-52 -58t-86.5 -21.5h-477q-9 0 -24.5 1.5t-56.5 11.5t-74 27.5t-65 55t-42 88.5l-172 836q-1 4 -2.5 11.5t-2.5 28t1.5 39.5
t14 42.5t31 40t55.5 28t85 11.5h449h14.5t37.5 -5t54.5 -14t60.5 -29t61.5 -48.5t52 -74.5t36.5 -104zM156 1083l215 -1009q11 0 23 0.5t33 2.5t39.5 6.5t43 11.5t43 17.5t39.5 25.5t33 34.5t23 45t10 57.5t-7 71l-98 459q-1 2 -6 18t-11 35t-20.5 45t-33 50.5t-49.5 49
t-68.5 42.5t-91.5 28.5t-117 9.5z" />
    <glyph glyph-name="Ocircumflex" unicode="&#xf4;" horiz-adv-x="1077" 
d="M610 1298h-293l-165 150l-222 -150l-82 -4l367 254h51l-14 -30l-35 -23l35 10l14 43zM895 946l123 -594q4 -21 6.5 -46t4 -69t-7 -82.5t-25 -75t-52 -58t-86.5 -21.5h-477q-9 0 -24.5 1.5t-56.5 11.5t-74 27.5t-65 55t-42 88.5l-172 836q-1 4 -2.5 11.5t-2.5 28t1.5 39.5
t14 42.5t31 40t55.5 28t85 11.5h449h14.5t37.5 -5t54.5 -14t60.5 -29t61.5 -48.5t52 -74.5t36.5 -104zM156 1083l215 -1009q11 0 23 0.5t33 2.5t39.5 6.5t43 11.5t43 17.5t39.5 25.5t33 34.5t23 45t10 57.5t-7 71l-98 459q-1 2 -6 18t-11 35t-20.5 45t-33 50.5t-49.5 49
t-68.5 42.5t-91.5 28.5t-117 9.5z" />
    <glyph glyph-name="Otilde" unicode="&#xd5;" horiz-adv-x="1077" 
d="M248 1405q-18 4 -30 6t-34 -2t-37 -16.5t-31 -42.5t-24 -76l-262 67l20 86q3 10 5 15.5t7 17.5t10 18.5t12.5 16t16.5 14.5t20.5 9t26.5 3.5t32 -5.5l278 -72l2 2v-2q55 -11 83 2q54 25 71 129l262 -68l-21 -88q-3 -10 -5.5 -18t-7.5 -20.5t-11.5 -19.5t-16.5 -16.5
t-22 -12t-29 -4.5t-37 5zM895 946l123 -594q4 -21 6.5 -46t4 -69t-7 -82.5t-25 -75t-52 -58t-86.5 -21.5h-477q-9 0 -24.5 1.5t-56.5 11.5t-74 27.5t-65 55t-42 88.5l-172 836q-1 4 -2.5 11.5t-2.5 28t1.5 39.5t14 42.5t31 40t55.5 28t85 11.5h449h14.5t37.5 -5t54.5 -14
t60.5 -29t61.5 -48.5t52 -74.5t36.5 -104zM156 1083l215 -1009q11 0 23 0.5t33 2.5t39.5 6.5t43 11.5t43 17.5t39.5 25.5t33 34.5t23 45t10 57.5t-7 71l-98 459q-1 2 -6 18t-11 35t-20.5 45t-33 50.5t-49.5 49t-68.5 42.5t-91.5 28.5t-117 9.5z" />
    <glyph glyph-name="Otilde" unicode="&#xf5;" horiz-adv-x="1077" 
d="M248 1405q-18 4 -30 6t-34 -2t-37 -16.5t-31 -42.5t-24 -76l-262 67l20 86q3 10 5 15.5t7 17.5t10 18.5t12.5 16t16.5 14.5t20.5 9t26.5 3.5t32 -5.5l278 -72l2 2v-2q55 -11 83 2q54 25 71 129l262 -68l-21 -88q-3 -10 -5.5 -18t-7.5 -20.5t-11.5 -19.5t-16.5 -16.5
t-22 -12t-29 -4.5t-37 5zM895 946l123 -594q4 -21 6.5 -46t4 -69t-7 -82.5t-25 -75t-52 -58t-86.5 -21.5h-477q-9 0 -24.5 1.5t-56.5 11.5t-74 27.5t-65 55t-42 88.5l-172 836q-1 4 -2.5 11.5t-2.5 28t1.5 39.5t14 42.5t31 40t55.5 28t85 11.5h449h14.5t37.5 -5t54.5 -14
t60.5 -29t61.5 -48.5t52 -74.5t36.5 -104zM156 1083l215 -1009q11 0 23 0.5t33 2.5t39.5 6.5t43 11.5t43 17.5t39.5 25.5t33 34.5t23 45t10 57.5t-7 71l-98 459q-1 2 -6 18t-11 35t-20.5 45t-33 50.5t-49.5 49t-68.5 42.5t-91.5 28.5t-117 9.5z" />
    <glyph glyph-name="Odieresis" unicode="&#xd6;" horiz-adv-x="1077" 
d="M-14 1296h-107l-51 244h324v-94q0 -46 -19 -78.5t-48.5 -46.5t-53.5 -19.5t-45 -5.5zM440 1296h-106l-49 244h323v-94q0 -46 -19.5 -79t-49.5 -46.5t-54 -19t-45 -5.5zM858 0h-477q-9 0 -24.5 1.5t-56.5 11.5t-74 27.5t-65 55t-42 88.5l-172 836q-1 4 -2.5 11.5t-2.5 28
t1.5 39.5t14 42.5t31 40t55.5 28t85 11.5h449h14.5t37.5 -5t54.5 -14t60.5 -29t61.5 -48.5t52 -74.5t36.5 -104l123 -594q4 -21 6.5 -46t4 -69t-7 -82.5t-25 -75t-52 -58t-86.5 -21.5zM156 1083l215 -1009q11 0 23 0.5t33 2.5t39.5 6.5t43 11.5t43 17.5t39.5 25.5t33 34.5
t23 45t10 57.5t-7 71l-98 459q-1 2 -6 18t-11 35t-20.5 45t-33 50.5t-49.5 49t-68.5 42.5t-91.5 28.5t-117 9.5z" />
    <glyph glyph-name="Odieresis" unicode="&#xf6;" horiz-adv-x="1077" 
d="M-14 1296h-107l-51 244h324v-94q0 -46 -19 -78.5t-48.5 -46.5t-53.5 -19.5t-45 -5.5zM440 1296h-106l-49 244h323v-94q0 -46 -19.5 -79t-49.5 -46.5t-54 -19t-45 -5.5zM858 0h-477q-9 0 -24.5 1.5t-56.5 11.5t-74 27.5t-65 55t-42 88.5l-172 836q-1 4 -2.5 11.5t-2.5 28
t1.5 39.5t14 42.5t31 40t55.5 28t85 11.5h449h14.5t37.5 -5t54.5 -14t60.5 -29t61.5 -48.5t52 -74.5t36.5 -104l123 -594q4 -21 6.5 -46t4 -69t-7 -82.5t-25 -75t-52 -58t-86.5 -21.5zM156 1083l215 -1009q11 0 23 0.5t33 2.5t39.5 6.5t43 11.5t43 17.5t39.5 25.5t33 34.5
t23 45t10 57.5t-7 71l-98 459q-1 2 -6 18t-11 35t-20.5 45t-33 50.5t-49.5 49t-68.5 42.5t-91.5 28.5t-117 9.5z" />
    <glyph glyph-name="Ugrave" unicode="&#xd9;" horiz-adv-x="1085" 
d="M477 1397l-35 -31q-13 15 -23.5 24.5t-33.5 20t-45.5 8.5t-57 -21t-71.5 -57l-207 234l78 70q101 89 178 0zM842 1227l184 -875q6 -35 9 -67t3 -75.5t-10.5 -78t-29.5 -65.5t-56 -48.5t-88 -17.5h-696l-252 1223h225l242 -1149h116q9 0 24 0.5t51 10.5t61 29.5t39.5 64
t1.5 106.5l-197 942h373z" />
    <glyph glyph-name="Ugrave" unicode="&#xf9;" horiz-adv-x="1085" 
d="M477 1397l-35 -31q-13 15 -23.5 24.5t-33.5 20t-45.5 8.5t-57 -21t-71.5 -57l-207 234l78 70q101 89 178 0zM842 1227l184 -875q6 -35 9 -67t3 -75.5t-10.5 -78t-29.5 -65.5t-56 -48.5t-88 -17.5h-696l-252 1223h225l242 -1149h116q9 0 24 0.5t51 10.5t61 29.5t39.5 64
t1.5 106.5l-197 942h373z" />
    <glyph glyph-name="Uacute" unicode="&#xda;" horiz-adv-x="1085" 
d="M528 1581l-206 -233q-37 38 -71.5 57t-57.5 21t-46 -9t-33.5 -20.5t-23.5 -24.5l-35 31l217 248q77 90 179 0zM842 1227l184 -875q6 -35 9 -67t3 -75.5t-10.5 -78t-29.5 -65.5t-56 -48.5t-88 -17.5h-696l-252 1223h225l242 -1149h116q9 0 24 0.5t51 10.5t61 29.5t39.5 64
t1.5 106.5l-197 942h373z" />
    <glyph glyph-name="Uacute" unicode="&#xfa;" horiz-adv-x="1085" 
d="M528 1581l-206 -233q-37 38 -71.5 57t-57.5 21t-46 -9t-33.5 -20.5t-23.5 -24.5l-35 31l217 248q77 90 179 0zM842 1227l184 -875q6 -35 9 -67t3 -75.5t-10.5 -78t-29.5 -65.5t-56 -48.5t-88 -17.5h-696l-252 1223h225l242 -1149h116q9 0 24 0.5t51 10.5t61 29.5t39.5 64
t1.5 106.5l-197 942h373z" />
    <glyph glyph-name="Ucircumflex" unicode="&#xdb;" horiz-adv-x="1085" 
d="M555 1333h-293l-166 150l-221 -150l-82 -4l367 254h51l-14 -31l-35 -22l35 10l14 43zM842 1227l184 -875q6 -35 9 -67t3 -75.5t-10.5 -78t-29.5 -65.5t-56 -48.5t-88 -17.5h-696l-252 1223h225l242 -1149h116q9 0 24 0.5t51 10.5t61 29.5t39.5 64t1.5 106.5l-197 942h373
z" />
    <glyph glyph-name="Ucircumflex" unicode="&#xfb;" horiz-adv-x="1085" 
d="M555 1333h-293l-166 150l-221 -150l-82 -4l367 254h51l-14 -31l-35 -22l35 10l14 43zM842 1227l184 -875q6 -35 9 -67t3 -75.5t-10.5 -78t-29.5 -65.5t-56 -48.5t-88 -17.5h-696l-252 1223h225l242 -1149h116q9 0 24 0.5t51 10.5t61 29.5t39.5 64t1.5 106.5l-197 942h373
z" />
    <glyph glyph-name="Udieresis" unicode="&#xdc;" horiz-adv-x="1085" 
d="M-70 1331h-106l-51 244h323v-94q0 -46 -19 -78.5t-48.5 -46.5t-53.5 -19.5t-45 -5.5zM385 1331h-106l-50 244h324v-94q0 -46 -19.5 -79t-49.5 -46.5t-54 -19t-45 -5.5zM131 1223h-225l252 -1223h696q51 0 88 17.5t56 48.5t29.5 65.5t10.5 78t-3 75.5t-9 67l-184 875h-373
l197 -942q9 -47 5 -81.5t-19.5 -57t-35.5 -37t-42.5 -22t-41 -10.5t-30.5 -3h-13h-116z" />
    <glyph glyph-name="Udieresis" unicode="&#xfc;" horiz-adv-x="1085" 
d="M-70 1331h-106l-51 244h323v-94q0 -46 -19 -78.5t-48.5 -46.5t-53.5 -19.5t-45 -5.5zM385 1331h-106l-50 244h324v-94q0 -46 -19.5 -79t-49.5 -46.5t-54 -19t-45 -5.5zM131 1223h-225l252 -1223h696q51 0 88 17.5t56 48.5t29.5 65.5t10.5 78t-3 75.5t-9 67l-184 875h-373
l197 -942q9 -47 5 -81.5t-19.5 -57t-35.5 -37t-42.5 -22t-41 -10.5t-30.5 -3h-13h-116z" />
    <glyph glyph-name="Ydieresis" unicode="&#xff;" horiz-adv-x="1026" 
d="M119 1544v-94q0 -46 -19 -78.5t-48.5 -46.5t-53.5 -19.5t-45 -5.5h-107l-51 244h324zM408 1300h-107l-49 244h323v-94q0 -46 -19 -78.5t-49 -46.5t-54 -19.5t-45 -5.5zM414 1217h372l252 -1217h-372l-45 207q-9 42 -48 85.5t-96.5 84t-125.5 84.5t-137.5 95.5
t-130.5 107.5t-107.5 129t-63.5 153l-59 275h223l63 -295q10 -53 55.5 -107.5t104 -98t116.5 -84t101.5 -80.5t50.5 -73z" />
    <glyph glyph-name="Ydieresis" unicode="&#x178;" horiz-adv-x="1026" 
d="M119 1544v-94q0 -46 -19 -78.5t-48.5 -46.5t-53.5 -19.5t-45 -5.5h-107l-51 244h324zM408 1300h-107l-49 244h323v-94q0 -46 -19 -78.5t-49 -46.5t-54 -19.5t-45 -5.5zM414 1217h372l252 -1217h-372l-45 207q-9 42 -48 85.5t-96.5 84t-125.5 84.5t-137.5 95.5
t-130.5 107.5t-107.5 129t-63.5 153l-59 275h223l63 -295q10 -53 55.5 -107.5t104 -98t116.5 -84t101.5 -80.5t50.5 -73z" />
    <glyph glyph-name="Wcircumflex" unicode="&#x174;" horiz-adv-x="1466" 
d="M334 1333l-166 150l-221 -150l-82 -4l366 254h52l-15 -31l-35 -22l35 10l15 43l344 -250h-293zM1221 1225l186 -871q14 -54 10 -116t-19.5 -115.5t-54.5 -88.5t-94 -34h-1091l-254 1229h233l238 -1153h13h38t42 2.5t46 7t43 14t40.5 22.5t31 34.5t22 48.5t7 64.5
t-8.5 82.5l-178 875h223l180 -877q15 -48 12.5 -133t-32.5 -139q31 14 58.5 32t61.5 51t49.5 82.5t6.5 108.5l-180 873h371z" />
    <glyph glyph-name="Wcircumflex" unicode="&#x175;" horiz-adv-x="1466" 
d="M334 1333l-166 150l-221 -150l-82 -4l366 254h52l-15 -31l-35 -22l35 10l15 43l344 -250h-293zM1221 1225l186 -871q14 -54 10 -116t-19.5 -115.5t-54.5 -88.5t-94 -34h-1091l-254 1229h233l238 -1153h13h38t42 2.5t46 7t43 14t40.5 22.5t31 34.5t22 48.5t7 64.5
t-8.5 82.5l-178 875h223l180 -877q15 -48 12.5 -133t-32.5 -139q31 14 58.5 32t61.5 51t49.5 82.5t6.5 108.5l-180 873h371z" />
    <glyph glyph-name="Ycircumflex" unicode="&#x176;" horiz-adv-x="1026" 
d="M285 1303l-166 149l-221 -149l-82 -5l366 254h51l-14 -30l-35 -23l35 10l14 43l345 -249h-293zM414 1217h372l252 -1217h-372l-45 207q-9 42 -48 85.5t-96.5 84t-125.5 84.5t-137.5 95.5t-130.5 107.5t-107.5 129t-63.5 153l-59 275h223l63 -295q10 -53 55.5 -107.5
t104 -98t116.5 -84t101.5 -80.5t50.5 -73z" />
    <glyph glyph-name="Ycircumflex" unicode="&#x177;" horiz-adv-x="1026" 
d="M285 1303l-166 149l-221 -149l-82 -5l366 254h51l-14 -30l-35 -23l35 10l14 43l345 -249h-293zM414 1217h372l252 -1217h-372l-45 207q-9 42 -48 85.5t-96.5 84t-125.5 84.5t-137.5 95.5t-130.5 107.5t-107.5 129t-63.5 153l-59 275h223l63 -295q10 -53 55.5 -107.5
t104 -98t116.5 -84t101.5 -80.5t50.5 -73z" />
    <glyph glyph-name="circumflex" unicode="&#x2c6;" horiz-adv-x="1228" 
d="M283 1411l344 -250h-293l-166 150l-221 -150l-82 -4l366 254h52l-15 -31l-35 -22l35 10z" />
    <glyph glyph-name="tilde" unicode="&#x2dc;" horiz-adv-x="1228" 
d="M596 1401l262 -68l-20 -88q-3 -10 -5.5 -18t-7.5 -20.5t-11.5 -19.5t-16.5 -16.5t-22 -12t-29 -4.5t-37 5l-279 72q-18 4 -30 6t-34 -2t-37 -16.5t-31 -42.5t-24 -76l-262 67l21 86q3 11 5 16t7 17t9.5 18l12 16t16.5 14.5t20.5 8.5t26.5 3.5t32 -5.5l278 -71l2 2v-2
q55 -11 83 2q54 27 71 129z" />
    <glyph glyph-name="Wgrave" unicode="&#x1e80;" horiz-adv-x="1466" 
d="M549 1397l-35 -31q-13 15 -23.5 24.5t-33.5 20t-45.5 8.5t-57 -21t-71.5 -57l-207 234l78 70q101 89 178 0zM1221 1225l186 -871q14 -54 10 -116t-19.5 -115.5t-54.5 -88.5t-94 -34h-1091l-254 1229h233l238 -1153h13h38t42 2.5t46 7t43 14t40.5 22.5t31 34.5t22 48.5
t7 64.5t-8.5 82.5l-178 875h223l180 -877q15 -48 12.5 -133t-32.5 -139q31 14 58.5 32t61.5 51t49.5 82.5t6.5 108.5l-180 873h371z" />
    <glyph glyph-name="Wgrave" unicode="&#x1e81;" horiz-adv-x="1466" 
d="M549 1397l-35 -31q-13 15 -23.5 24.5t-33.5 20t-45.5 8.5t-57 -21t-71.5 -57l-207 234l78 70q101 89 178 0zM1221 1225l186 -871q14 -54 10 -116t-19.5 -115.5t-54.5 -88.5t-94 -34h-1091l-254 1229h233l238 -1153h13h38t42 2.5t46 7t43 14t40.5 22.5t31 34.5t22 48.5
t7 64.5t-8.5 82.5l-178 875h223l180 -877q15 -48 12.5 -133t-32.5 -139q31 14 58.5 32t61.5 51t49.5 82.5t6.5 108.5l-180 873h371z" />
    <glyph glyph-name="Wacute" unicode="&#x1e82;" horiz-adv-x="1466" 
d="M600 1581l-207 -233q-37 38 -71.5 57t-57 21t-45.5 -9t-33 -20.5t-24 -24.5l-35 31l217 248q77 89 178 0zM1221 1225l186 -871q14 -54 10 -116t-19.5 -115.5t-54.5 -88.5t-94 -34h-1091l-254 1229h233l238 -1153h13h38t42 2.5t46 7t43 14t40.5 22.5t31 34.5t22 48.5
t7 64.5t-8.5 82.5l-178 875h223l180 -877q15 -48 12.5 -133t-32.5 -139q31 14 58.5 32t61.5 51t49.5 82.5t6.5 108.5l-180 873h371z" />
    <glyph glyph-name="Wacute" unicode="&#x1e83;" horiz-adv-x="1466" 
d="M600 1581l-207 -233q-37 38 -71.5 57t-57 21t-45.5 -9t-33 -20.5t-24 -24.5l-35 31l217 248q77 89 178 0zM1221 1225l186 -871q14 -54 10 -116t-19.5 -115.5t-54.5 -88.5t-94 -34h-1091l-254 1229h233l238 -1153h13h38t42 2.5t46 7t43 14t40.5 22.5t31 34.5t22 48.5
t7 64.5t-8.5 82.5l-178 875h223l180 -877q15 -48 12.5 -133t-32.5 -139q31 14 58.5 32t61.5 51t49.5 82.5t6.5 108.5l-180 873h371z" />
    <glyph glyph-name="Wdieresis" unicode="&#x1e84;" horiz-adv-x="1466" 
d="M168 1575v-94q0 -46 -19 -78.5t-48.5 -46.5t-53.5 -19.5t-45 -5.5h-106l-52 244h324zM457 1331h-107l-49 244h324v-94q0 -46 -19.5 -79t-49.5 -46.5t-54 -19t-45 -5.5zM1221 1225l186 -871q14 -54 10 -116t-19.5 -115.5t-54.5 -88.5t-94 -34h-1091l-254 1229h233
l238 -1153h13h38t42 2.5t46 7t43 14t40.5 22.5t31 34.5t22 48.5t7 64.5t-8.5 82.5l-178 875h223l180 -877q15 -48 12.5 -133t-32.5 -139q31 14 58.5 32t61.5 51t49.5 82.5t6.5 108.5l-180 873h371z" />
    <glyph glyph-name="Wdieresis" unicode="&#x1e85;" horiz-adv-x="1466" 
d="M168 1575v-94q0 -46 -19 -78.5t-48.5 -46.5t-53.5 -19.5t-45 -5.5h-106l-52 244h324zM457 1331h-107l-49 244h324v-94q0 -46 -19.5 -79t-49.5 -46.5t-54 -19t-45 -5.5zM1221 1225l186 -871q14 -54 10 -116t-19.5 -115.5t-54.5 -88.5t-94 -34h-1091l-254 1229h233
l238 -1153h13h38t42 2.5t46 7t43 14t40.5 22.5t31 34.5t22 48.5t7 64.5t-8.5 82.5l-178 875h223l180 -877q15 -48 12.5 -133t-32.5 -139q31 14 58.5 32t61.5 51t49.5 82.5t6.5 108.5l-180 873h371z" />
    <glyph glyph-name="Ygrave" unicode="&#x1ef2;" horiz-adv-x="1026" 
d="M500 1366l-35 -31q-13 15 -23.5 24.5t-33.5 20.5t-46 9t-57.5 -21t-71.5 -57l-206 233l77 70q102 90 179 0zM414 1217h372l252 -1217h-372l-45 207q-9 42 -48 85.5t-96.5 84t-125.5 84.5t-137.5 95.5t-130.5 107.5t-107.5 129t-63.5 153l-59 275h223l63 -295
q10 -53 55.5 -107.5t104 -98t116.5 -84t101.5 -80.5t50.5 -73z" />
    <glyph glyph-name="Ygrave" unicode="&#x1ef3;" horiz-adv-x="1026" 
d="M500 1366l-35 -31q-13 15 -23.5 24.5t-33.5 20.5t-46 9t-57.5 -21t-71.5 -57l-206 233l77 70q102 90 179 0zM414 1217h372l252 -1217h-372l-45 207q-9 42 -48 85.5t-96.5 84t-125.5 84.5t-137.5 95.5t-130.5 107.5t-107.5 129t-63.5 153l-59 275h223l63 -295
q10 -53 55.5 -107.5t104 -98t116.5 -84t101.5 -80.5t50.5 -73z" />
    </font>
</defs>
</svg>
